<?xml version="1.0" encoding="utf-8"?>
<!-- Generator: Adobe Illustrator 15.1.0, SVG Export Plug-In . SVG Version: 6.00 Build 0)  -->
<!DOCTYPE svg PUBLIC "-//W3C//DTD SVG 1.1//EN" "http://www.w3.org/Graphics/SVG/1.1/DTD/svg11.dtd">
<svg version="1.1" id="Слой_1" xmlns="http://www.w3.org/2000/svg" xmlns:xlink="http://www.w3.org/1999/xlink" x="0px" y="0px"
	 width="200px" height="200px" viewBox="0 0 200 200" enable-background="new 0 0 200 200" xml:space="preserve">
<path fill-rule="evenodd" clip-rule="evenodd" fill="#E74C3C" d="M81.509,160.838c10.954,0,19.833,8.88,19.833,19.834
	c0,10.953-8.88,19.833-19.833,19.833c-10.954,0-19.833-8.88-19.833-19.833C61.676,169.718,70.555,160.838,81.509,160.838
	L81.509,160.838z M54.07,42.021L54.07,42.021l143.162,14.275l-10.44,54.922c-0.986,5.188-5.417,8.855-10.697,8.855h-29.478h-75.12
	l2.822,12.64h87.574h10.575c4.833,0,8.751,3.917,8.751,8.75c0,4.832-3.918,8.75-8.751,8.75H67.342v-0.033
	c-4.003,0.004-7.612-2.768-8.511-6.837L32.569,25.716l-0.244-1.091l-1.734-0.544l-20.68-6.5c-4.606-1.435-7.177-6.331-5.742-10.938
	C5.604,2.037,10.5-0.534,15.106,0.901l27.223,8.555c3.296,1.027,5.55,3.828,6.039,7.026L54.07,42.021L54.07,42.021z
	 M156.621,160.838c10.954,0,19.834,8.88,19.834,19.834c0,10.953-8.88,19.833-19.834,19.833s-19.834-8.88-19.834-19.833
	C136.787,169.718,145.667,160.838,156.621,160.838z"/>
</svg>
